<?xml version="1.0" encoding="utf-8"?>
<!-- Generator: Adobe Illustrator 14.0.0, SVG Export Plug-In . SVG Version: 6.00 Build 43363)  -->
<!DOCTYPE svg PUBLIC "-//W3C//DTD SVG 1.1//EN" "http://www.w3.org/Graphics/SVG/1.1/DTD/svg11.dtd">
<svg version="1.1" id="Calque_1" xmlns="http://www.w3.org/2000/svg" xmlns:xlink="http://www.w3.org/1999/xlink" x="0px" y="0px"
	 width="45.302px" height="68.139px" viewBox="0 0 45.302 68.139" enable-background="new 0 0 45.302 68.139" xml:space="preserve">
<path fill="#0071B3" d="M40.209,0c2.796,0,5.093,1.903,5.093,4.687v58.705c0,2.644-1.638,4.427-4.134,4.747H4.355
	c-2.457-0.341-4.335-2.283-4.335-4.847L0,5.148C0,2.283,1.998,0,4.834,0H40.209"/>
<path fill="#FFFFFF" d="M28.604,46.148H15.121l-3.235,6.568c0.02,0.142-0.36,0.281-0.479,0.502c-0.12,0.12-0.22,0.261-0.3,0.381
	c-0.16,0.16-0.22,0.54-0.239,0.601v2.604c0,1.222,0.1,3.604,1.458,3.705v3.385h2.058v-3.205h14.98v3.205h2.058v-3.385
	c1.358-0.101,1.459-2.483,1.459-3.705V54.2c-0.021-0.061-0.081-0.44-0.241-0.601c-0.079-0.12-0.199-0.261-0.299-0.381
	c-0.12-0.221-0.5-0.36-0.479-0.502L28.604,46.148z"/>
<path fill="none" stroke="#FFFFFF" stroke-width="0.4" stroke-miterlimit="3.863" d="M28.604,46.148H15.121l-3.235,6.568
	c0.02,0.142-0.36,0.281-0.479,0.502c-0.12,0.12-0.22,0.261-0.3,0.381c-0.16,0.16-0.22,0.54-0.239,0.601v2.604
	c0,1.222,0.1,3.604,1.458,3.705v3.385h2.058v-3.205h14.98v3.205h2.058v-3.385c1.358-0.101,1.459-2.483,1.459-3.705V54.2
	c-0.021-0.061-0.081-0.44-0.241-0.601c-0.079-0.12-0.199-0.261-0.299-0.381c-0.12-0.221-0.5-0.36-0.479-0.502L28.604,46.148z"/>
<path fill="#0071B3" d="M22.952,46.829h5.252l2.697,5.888c-2.896-0.46-5.973-0.701-9.008-0.701c-3.077,0-6.133,0.241-9.029,0.701
	l2.696-5.888H22.952z"/>
<path fill="none" stroke="#FFFFFF" stroke-width="0.4" stroke-miterlimit="3.863" d="M22.952,46.829h5.252l2.697,5.888
	c-2.896-0.46-5.973-0.701-9.008-0.701c-3.077,0-6.133,0.241-9.029,0.701l2.696-5.888H22.952z"/>
<polygon fill="#FFFFFF" points="11.886,17.928 11.886,38.537 17.378,38.537 17.478,37.676 17.478,24.216 17.558,23.936 
	25.868,23.936 26.606,23.796 27.245,23.556 28.364,23.075 28.663,22.954 29.522,22.354 30.361,21.673 30.901,21.052 31.64,20.19 
	32.339,18.969 32.679,18.288 32.938,17.307 33.219,16.365 33.318,15.505 33.378,14.622 33.398,13.461 33.318,12.539 33.219,11.558 
	32.938,10.717 32.679,9.676 32.239,8.694 31.64,7.732 30.98,6.992 30.002,6.131 29.183,5.53 28.724,5.29 28.165,5.029 26.886,4.608 
	26.407,4.469 11.886,4.469 "/>
<polygon fill="none" stroke="#FFFFFF" stroke-width="0" stroke-miterlimit="3.863" points="11.886,17.928 11.886,38.537 
	17.378,38.537 17.478,37.676 17.478,24.216 17.558,23.936 25.868,23.936 26.606,23.796 27.245,23.556 28.364,23.075 28.663,22.954 
	29.522,22.354 30.361,21.673 30.901,21.052 31.64,20.19 32.339,18.969 32.679,18.288 32.938,17.307 33.219,16.365 33.318,15.505 
	33.378,14.622 33.398,13.461 33.318,12.539 33.219,11.558 32.938,10.717 32.679,9.676 32.239,8.694 31.64,7.732 30.98,6.992 
	30.002,6.131 29.183,5.53 28.724,5.289 28.165,5.029 26.886,4.608 26.407,4.469 11.886,4.469 "/>
<polygon fill="#0071B3" points="27.485,14.822 27.226,15.765 26.566,16.746 25.747,17.527 24.849,17.787 17.777,17.787 
	17.698,16.847 17.698,10.316 18.596,10.216 24.09,10.216 24.989,10.316 25.668,10.557 25.947,10.597 26.667,11.277 26.966,11.738 
	27.226,12.059 27.485,12.64 27.585,13.581 27.485,14.542 "/>
<polygon fill="none" stroke="#FFFFFF" stroke-width="0" stroke-miterlimit="3.863" points="27.485,14.822 27.226,15.765 
	26.566,16.746 25.747,17.527 24.849,17.787 17.777,17.787 17.698,16.847 17.698,10.316 18.596,10.216 24.09,10.216 24.989,10.316 
	25.668,10.557 25.947,10.597 26.667,11.277 26.966,11.738 27.226,12.059 27.485,12.64 27.585,13.581 27.485,14.542 "/>
</svg>
