<?xml version="1.0" encoding="utf-8"?>
<!-- Generator: Adobe Illustrator 14.0.0, SVG Export Plug-In . SVG Version: 6.00 Build 43363)  -->
<!DOCTYPE svg PUBLIC "-//W3C//DTD SVG 1.1//EN" "http://www.w3.org/Graphics/SVG/1.1/DTD/svg11.dtd">
<svg version="1.1" id="Calque_1" xmlns="http://www.w3.org/2000/svg" xmlns:xlink="http://www.w3.org/1999/xlink" x="0px" y="0px"
	 width="185.967px" height="69.776px" viewBox="0 0 185.967 69.776" enable-background="new 0 0 185.967 69.776"
	 xml:space="preserve">
<path fill="#F89646" d="M178.667,35.089c3.949,0,7.698,2.966,7.14,7.535l0.04-0.04v19.679c0,4.088-3.19,7.454-7.14,7.454H27.501
	c-1.834-0.08-3.709-0.601-5.146-1.684L1.576,55.328c-0.917-0.642-1.516-1.723-1.516-3.046c0-1.282,0.559-2.324,1.396-2.965
	l20.82-12.705c1.396-1.083,3.271-1.604,5.105-1.685L178.667,35.089z"/>
<path fill="none" stroke="#F89646" stroke-width="0.12" stroke-miterlimit="3.863" d="M178.667,35.089
	c3.949,0,7.698,2.966,7.14,7.535l0.04-0.04v19.679c0,4.088-3.19,7.454-7.14,7.454H27.501c-1.834-0.08-3.709-0.601-5.146-1.684
	L1.576,55.328c-0.917-0.642-1.516-1.723-1.516-3.046c0-1.282,0.559-2.324,1.396-2.966l20.82-12.704
	c1.396-1.083,3.271-1.604,5.105-1.685L178.667,35.089z"/>
<path d="M27.542,67.793c-1.595,0-3.151-0.521-4.427-1.282l-20.9-12.585c-0.478-0.32-0.797-0.962-0.797-1.604
	c0-0.721,0.399-1.362,0.997-1.684l20.501-12.504c1.277-0.762,2.833-1.243,4.428-1.243h151.564c2.951,0,5.346,2.485,5.346,5.571v19.8
	c0,3.086-2.395,5.57-5.346,5.57H27.382L27.542,67.793z"/>
<path fill="none" stroke="#000000" stroke-width="0.12" stroke-miterlimit="3.863" d="M27.542,67.793
	c-1.595,0-3.151-0.521-4.427-1.282l-20.9-12.585c-0.478-0.32-0.797-0.962-0.797-1.604c0-0.721,0.399-1.362,0.997-1.684
	l20.501-12.504c1.277-0.762,2.833-1.243,4.428-1.243h151.564c2.951,0,5.346,2.485,5.346,5.571v19.8c0,3.086-2.395,5.57-5.346,5.57
	H27.382L27.542,67.793z"/>
<path fill="#F89646" d="M159.602,38.456H27.622c-1.635,0-3.151,0.6-4.348,1.603L15.178,51.16c-0.319,0-0.559,0.521-0.559,1.082
	c0,0.4,0.12,0.802,0.359,1.122l7.338,10.621c1.237,1.522,3.071,2.405,5.146,2.405h151.165h-0.08c2.313,0,4.188-1.924,4.188-4.369
	V42.784c0-2.365-1.874-4.409-4.188-4.409h-18.945V38.456z"/>
<path fill="none" stroke="#F89646" stroke-width="0.12" stroke-miterlimit="3.863" d="M159.602,38.456H27.622
	c-1.635,0-3.151,0.6-4.348,1.603L15.178,51.16c-0.319,0-0.559,0.521-0.559,1.082c0,0.4,0.12,0.802,0.359,1.122l7.338,10.621
	c1.237,1.522,3.071,2.405,5.146,2.405h151.165h-0.08c2.313,0,4.188-1.924,4.188-4.369V42.784c0-2.365-1.874-4.409-4.188-4.409
	h-18.945V38.456z"/>
<path fill="#F89646" d="M178.109,0.381c3.948,0,8.535,1.923,7.697,7.374l0.04-0.04v19.679c0,4.088-3.19,7.454-7.14,7.454H27.501
	c-1.834-0.08-3.709-0.601-5.146-1.683L1.576,20.46c-0.917-0.642-1.516-1.723-1.516-3.046c0-1.282,0.559-2.325,1.396-2.966
	l20.82-12.705c1.396-1.082,3.271-1.684,5.105-1.684L178.109,0.381z"/>
<path fill="none" stroke="#F89646" stroke-width="0.12" stroke-miterlimit="3.863" d="M178.109,0.381
	c3.948,0,8.535,1.923,7.697,7.374l0.04-0.04v19.679c0,4.088-3.19,7.454-7.14,7.454H27.501c-1.834-0.08-3.709-0.601-5.146-1.683
	L1.576,20.46c-0.917-0.642-1.516-1.723-1.516-3.046c0-1.282,0.559-2.325,1.396-2.966l20.82-12.705
	c1.396-1.082,3.271-1.684,5.105-1.684L178.109,0.381z"/>
<path fill="#120C0E" d="M138.98,31.521h39.646h-0.08c2.313,0,4.188-1.923,4.188-4.368V7.916c0-2.365-1.874-4.409-4.188-4.409
	h-18.945v0.079H27.622c-1.635,0-3.151,0.602-4.348,1.604l-8.096,11.102c-0.319,0-0.559,0.521-0.559,1.082
	c0,0.4,0.12,0.802,0.359,1.122l7.338,10.621c1.237,1.522,3.071,2.404,5.146,2.404h103.981v1.442H27.382l0.16-0.04
	c-1.595,0-3.151-0.521-4.427-1.281l-20.9-12.586c-0.478-0.319-0.797-0.961-0.797-1.603c0-0.721,0.399-1.362,0.997-1.684
	L22.915,3.267c1.277-0.762,2.833-1.243,4.428-1.243h151.564c2.951,0,5.346,2.485,5.346,5.571v19.799c0,3.086-2.395,5.57-5.346,5.57
	H138.98v-1.482V31.521z"/>
<path fill="none" stroke="#120C0E" stroke-width="0.12" stroke-miterlimit="3.863" d="M138.98,31.521h39.646h-0.08
	c2.313,0,4.188-1.923,4.188-4.368V7.916c0-2.365-1.874-4.409-4.188-4.409h-18.945v0.079H27.622c-1.635,0-3.151,0.602-4.348,1.604
	l-8.096,11.102c-0.319,0-0.559,0.521-0.559,1.082c0,0.4,0.12,0.802,0.359,1.122l7.338,10.621c1.237,1.522,3.071,2.404,5.146,2.404
	h103.981v1.442H27.382l0.16-0.04c-1.595,0-3.151-0.521-4.427-1.281l-20.9-12.586c-0.478-0.319-0.797-0.961-0.797-1.603
	c0-0.721,0.399-1.362,0.997-1.684L22.915,3.267c1.277-0.762,2.833-1.243,4.428-1.243h151.564c2.951,0,5.346,2.485,5.346,5.571
	v19.799c0,3.086-2.395,5.57-5.346,5.57H138.98v-1.482V31.521z"/>
<path fill="#120C0E" d="M124.902,14.248c0.677-0.682,1.715-1.203,2.791-1.203h1.875v2.806h-1.875c-1.596,0-2.871,1.282-2.871,3.007
	v8.456h-3.111V13.045h3.071v1.163L124.902,14.248z"/>
<path fill="none" stroke="#120C0E" stroke-width="0.12" stroke-miterlimit="3.863" d="M124.902,14.248
	c0.677-0.682,1.715-1.203,2.791-1.203h1.875v2.806h-1.875c-1.596,0-2.871,1.282-2.871,3.007v8.456h-3.111V13.045h3.071v1.163
	L124.902,14.248z"/>
<path d="M58.972,18.777c0-1.524,1.236-2.766,2.791-2.766c1.477,0,2.752,1.241,2.752,2.766v8.817h3.151v-9.539
	c0-2.847-2.313-5.171-5.105-5.171c-1.316,0-2.553,0.481-3.47,1.323v-1.083H55.98v14.51h2.992V18.777z"/>
<path fill="none" stroke="#000000" stroke-width="0" stroke-miterlimit="3.863" d="M58.972,18.777c0-1.524,1.236-2.766,2.791-2.766
	c1.477,0,2.752,1.241,2.752,2.766v8.817h3.151v-9.539c0-2.847-2.313-5.171-5.105-5.171c-1.316,0-2.553,0.481-3.47,1.323v-1.083
	H55.98v14.51h2.992V18.777z"/>
<path d="M76.282,23.706c0,0.642,0.559,0.962,1.236,0.962h1.755v3.246h-2.711c-2.114,0-3.79-1.723-3.79-3.767v-7.735h-1.754v-3.367
	h1.556V9.358l3.829-2.084v5.69h3.47v3.407h-3.629v7.414L76.282,23.706z"/>
<path fill="none" stroke="#000000" stroke-width="0" stroke-miterlimit="3.863" d="M76.282,23.706c0,0.642,0.559,0.962,1.236,0.962
	h1.755v3.246h-2.711c-2.114,0-3.79-1.723-3.79-3.767v-7.735h-1.754v-3.367h1.556V9.358l3.829-2.084v5.69h3.47v3.407h-3.629v7.414
	L76.282,23.706z"/>
<path fill="#120C0E" d="M105.479,22.224c0,3.486,2.671,6.092,5.822,6.092c2.793,0,4.946-1.924,5.584-4.81h-3.311
	c-0.398,1.202-1.316,1.844-2.393,1.844c-1.396,0-2.474-1.283-2.474-2.646v-1.122h8.177v-3.046c0-3.407-2.512-6.093-5.703-6.093
	c-3.152,0-5.703,2.686-5.703,6.093V22.224z"/>
<path fill="none" stroke="#120C0E" stroke-width="0.12" stroke-miterlimit="3.863" d="M105.479,22.224
	c0,3.486,2.671,6.092,5.822,6.092c2.793,0,4.946-1.924,5.584-4.81h-3.311c-0.398,1.202-1.316,1.844-2.393,1.844
	c-1.396,0-2.474-1.283-2.474-2.646v-1.122h8.177v-3.046c0-3.407-2.512-6.093-5.703-6.093c-3.152,0-5.703,2.686-5.703,6.093V22.224z"
	/>
<path fill="#F89646" d="M113.773,18.136c0-1.563-1.117-2.806-2.553-2.806c-1.396,0-2.393,1.242-2.393,2.806v0.48h4.945v-0.521
	V18.136z"/>
<path fill="none" stroke="#F89646" stroke-width="0.12" stroke-miterlimit="3.863" d="M113.773,18.136
	c0-1.563-1.117-2.806-2.553-2.806c-1.396,0-2.393,1.242-2.393,2.806v0.48h4.945v-0.521V18.136z"/>
<path fill="#120C0E" d="M147.955,21.982c0,3.488,2.672,6.092,5.824,6.092c2.791,0,4.945-1.924,5.583-4.809h-3.31
	c-0.399,1.202-1.316,1.844-2.394,1.844c-1.396,0-2.473-1.283-2.473-2.646v-1.123h8.176v-3.045c0-3.407-2.513-6.092-5.703-6.092
	c-3.151,0-5.704,2.685-5.704,6.092V21.982z"/>
<path fill="none" stroke="#120C0E" stroke-width="0.12" stroke-miterlimit="3.863" d="M147.955,21.982
	c0,3.488,2.673,6.092,5.824,6.092c2.791,0,4.945-1.924,5.583-4.809h-3.31c-0.399,1.202-1.316,1.844-2.394,1.844
	c-1.396,0-2.473-1.283-2.473-2.646v-1.123h8.176v-3.045c0-3.407-2.513-6.092-5.703-6.092c-3.151,0-5.704,2.685-5.704,6.092V21.982z"
	/>
<path fill="#F89646" d="M156.252,17.895c0-1.563-1.117-2.806-2.553-2.806c-1.396,0-2.393,1.243-2.393,2.806v0.481h4.945v-0.521
	V17.895z"/>
<path fill="none" stroke="#F89646" stroke-width="0.12" stroke-miterlimit="3.863" d="M156.252,17.895
	c0-1.563-1.117-2.806-2.553-2.806c-1.396,0-2.393,1.243-2.393,2.806v0.481h4.945v-0.521V17.895z"/>
<path d="M167.101,18.176c0-1.522,1.236-2.766,2.792-2.766c1.477,0,2.752,1.243,2.752,2.766v8.817h3.151v-9.539
	c0-2.847-2.313-5.17-5.106-5.17c-1.314,0-2.553,0.48-3.469,1.322v-1.083h-3.111v14.51h2.991V18.176z"/>
<path fill="none" stroke="#000000" stroke-width="0" stroke-miterlimit="3.863" d="M167.101,18.176c0-1.522,1.236-2.766,2.792-2.766
	c1.477,0,2.752,1.243,2.752,2.766v8.817h3.151v-9.539c0-2.847-2.313-5.17-5.106-5.17c-1.314,0-2.553,0.48-3.469,1.322v-1.083h-3.111
	v14.51h2.991V18.176z"/>
<polygon fill="#120C0E" points="46.367,24.989 40.424,24.989 39.666,28.074 35.558,28.074 41.502,7.114 45.61,7.114 51.872,27.755 
	47.444,27.755 "/>
<polygon fill="none" stroke="#120C0E" stroke-width="0.12" stroke-miterlimit="3.863" points="46.367,24.989 40.424,24.989 
	39.666,28.074 35.558,28.074 41.502,7.113 45.61,7.113 51.872,27.755 47.444,27.755 "/>
<polygon fill="#F89646" points="45.45,21.782 41.502,21.782 43.616,15.65 "/>
<polygon fill="none" stroke="#F89646" stroke-width="0.12" stroke-miterlimit="3.863" points="45.45,21.782 41.502,21.782 
	43.616,15.65 "/>
<path fill="#120C0E" d="M144.485,17.494v5.21c0,3.046-2.353,5.45-5.146,5.45c-0.916,0-1.795-0.721-2.553-1.161v6.012h-3.11V12.443
	h3.11v0.722c0.758-0.44,1.637-1.161,2.553-1.161c2.793,0,5.146,2.404,5.146,5.45V17.494z"/>
<path fill="none" stroke="#120C0E" stroke-width="0.12" stroke-miterlimit="3.863" d="M144.485,17.494v5.21
	c0,3.046-2.353,5.45-5.146,5.45c-0.916,0-1.795-0.721-2.553-1.161v6.012h-3.11V12.443h3.11v0.722
	c0.758-0.44,1.637-1.161,2.553-1.161c2.793,0,5.146,2.404,5.146,5.45V17.494z"/>
<polygon fill="#120C0E" points="85.854,12.965 87.889,21.662 90.48,13.085 93.951,13.085 96.104,21.622 98.857,12.965 
	102.486,12.965 98.179,27.354 94.11,27.354 92.037,18.978 89.483,27.474 85.495,27.474 82.145,12.965 "/>
<polygon fill="none" stroke="#120C0E" stroke-width="0.12" stroke-miterlimit="3.863" points="85.854,12.965 87.889,21.662 
	90.48,13.085 93.951,13.085 96.104,21.622 98.857,12.965 102.486,12.965 98.179,27.354 94.11,27.354 92.037,18.978 89.484,27.474 
	85.495,27.474 82.145,12.965 "/>
<path fill="#F89646" d="M141.414,18.016v4.168c0,1.362-1.076,2.444-2.354,2.444c-1.076,0-1.954-0.602-2.273-1.603v-5.893
	c0.319-1.001,1.197-1.603,2.273-1.603c1.277,0,2.354,1.082,2.354,2.444V18.016z"/>
<path fill="none" stroke="#F89646" stroke-width="0.12" stroke-miterlimit="3.863" d="M141.414,18.016v4.168
	c0,1.362-1.076,2.444-2.354,2.444c-1.076,0-1.954-0.602-2.273-1.603v-5.893c0.319-1.001,1.197-1.603,2.273-1.603
	c1.277,0,2.354,1.082,2.354,2.444V18.016z"/>
<path fill="#120C0E" d="M101.729,49.036c0.678-0.682,1.715-1.203,2.791-1.203h1.875v2.806h-1.875c-1.594,0-2.871,1.283-2.871,3.007
	v8.456h-3.111V47.833h3.071v1.163L101.729,49.036z"/>
<path fill="none" stroke="#120C0E" stroke-width="0.12" stroke-miterlimit="3.863" d="M101.729,49.036
	c0.678-0.682,1.715-1.203,2.792-1.203h1.874v2.806h-1.874c-1.595,0-2.872,1.283-2.872,3.007v8.456h-3.111V47.833h3.071v1.163
	L101.729,49.036z"/>
<path fill="#120C0E" d="M136.588,49.236c0.718-0.601,1.716-1.242,2.832-1.242h1.875v2.966h-1.875c-1.635,0-2.952,1.322-2.952,3.127
	v8.696h-3.07V47.994h3.07v1.162L136.588,49.236z"/>
<path fill="none" stroke="#120C0E" stroke-width="0.12" stroke-miterlimit="3.863" d="M136.588,49.236
	c0.719-0.602,1.716-1.242,2.832-1.242h1.875v2.966h-1.875c-1.635,0-2.952,1.322-2.952,3.127v8.696h-3.07V47.994h3.07v1.162
	L136.588,49.236z"/>
<path fill="#120C0E" d="M117.723,57.332c0,3.487,2.672,6.092,5.822,6.092c2.793,0,4.946-1.924,5.585-4.809h-3.312
	c-0.397,1.202-1.315,1.844-2.393,1.844c-1.396,0-2.473-1.283-2.473-2.646V56.69h8.177v-3.045c0-3.407-2.513-6.092-5.704-6.092
	c-3.15,0-5.703,2.685-5.703,6.092V57.332z"/>
<path fill="none" stroke="#120C0E" stroke-width="0.12" stroke-miterlimit="3.863" d="M117.723,57.332
	c0,3.487,2.672,6.092,5.822,6.092c2.793,0,4.946-1.924,5.585-4.809h-3.312c-0.397,1.202-1.315,1.844-2.393,1.844
	c-1.396,0-2.473-1.283-2.473-2.646V56.69h8.177v-3.045c0-3.407-2.513-6.092-5.704-6.092c-3.15,0-5.703,2.685-5.703,6.092V57.332z"/>
<path fill="#F89646" d="M126.018,53.244c0-1.563-1.115-2.806-2.553-2.806c-1.395,0-2.393,1.243-2.393,2.806v0.481h4.945v-0.521
	V53.244z"/>
<path fill="none" stroke="#F89646" stroke-width="0.12" stroke-miterlimit="3.863" d="M126.018,53.244
	c0-1.563-1.115-2.806-2.553-2.806c-1.395,0-2.393,1.243-2.393,2.806v0.481h4.945v-0.521V53.244z"/>
<path fill-rule="evenodd" clip-rule="evenodd" fill="#120C0E" d="M109.945,62.263 M113.096,62.263h-3.151V41.581h3.151V62.263z"/>
<path fill="none" stroke="#120C0E" stroke-width="0.12" stroke-miterlimit="3.863" d="M109.945,62.263 M113.096,62.263h-3.151
	V41.581h3.151V62.263z"/>
<path fill="#120C0E" d="M70.02,52.683c0.319-1.001,1.196-1.603,2.274-1.603c1.276,0,2.353,1.083,2.353,2.445v8.777h3.071v-9.339
	c0-3.046-2.354-5.45-5.145-5.45c-0.918,0-1.796,0.2-2.553,0.641v-6.613h-3.111v20.641h3.111V52.683z"/>
<path fill="none" stroke="#120C0E" stroke-width="0.12" stroke-miterlimit="3.863" d="M70.02,52.683
	c0.319-1.001,1.196-1.603,2.274-1.603c1.276,0,2.353,1.083,2.353,2.445v8.777h3.071v-9.339c0-3.046-2.354-5.45-5.145-5.45
	c-0.918,0-1.796,0.2-2.553,0.641v-6.613h-3.111v20.641h3.111V52.683z"/>
<path fill="#120C0E" d="M89.165,62.343h-3.669c-2.114,0-3.83-1.884-3.83-4.168c0-2.245,1.716-3.768,3.83-4.048l3.271-0.481
	c0.877-0.08,1.475-0.842,1.475-1.764c0-0.882-0.757-1.684-1.675-1.684h-0.399c-0.757,0-1.476,0.481-1.755,1.203h-3.51
	c0.718-2.285,2.792-3.888,5.265-3.888c3.071,0,5.544,2.524,5.544,5.73v8.938H90.76V61.22C90.4,61.821,90.122,61.981,89.165,62.343z"
	/>
<path fill="none" stroke="#120C0E" stroke-width="0.12" stroke-miterlimit="3.863" d="M89.165,62.343h-3.669
	c-2.114,0-3.83-1.884-3.83-4.168c0-2.245,1.716-3.768,3.83-4.048l3.271-0.481c0.877-0.08,1.475-0.842,1.475-1.764
	c0-0.882-0.757-1.684-1.675-1.684h-0.399c-0.757,0-1.476,0.481-1.755,1.203h-3.51c0.718-2.285,2.792-3.888,5.265-3.888
	c3.071,0,5.544,2.524,5.544,5.73v8.938H90.76V61.22C90.4,61.821,90.122,61.981,89.165,62.343z"/>
<path fill="#120C0E" d="M58.413,55.81c0.159,2.204-1.476,4.008-3.43,4.008c-1.916,0-3.431-1.684-3.431-3.687v-7.776
	c0-2.124,1.516-3.606,3.431-3.606c1.475,0,2.631,0.841,3.19,2.164h3.51c-0.757-3.167-3.47-5.491-6.74-5.491
	c-3.87,0-6.98,3.327-6.98,7.295v7.094c0,4.008,3.111,7.215,6.9,7.215c3.749,0,6.859-3.207,6.859-7.215H58.413z"/>
<path fill="none" stroke="#120C0E" stroke-width="0.12" stroke-miterlimit="3.863" d="M58.413,55.81
	c0.159,2.204-1.476,4.008-3.43,4.008c-1.916,0-3.431-1.684-3.431-3.687v-7.776c0-2.124,1.516-3.606,3.431-3.606
	c1.475,0,2.631,0.841,3.19,2.164h3.51c-0.757-3.167-3.47-5.491-6.74-5.491c-3.87,0-6.98,3.327-6.98,7.295v7.094
	c0,4.008,3.11,7.215,6.9,7.215c3.749,0,6.859-3.207,6.859-7.215H58.413z"/>
<path fill="#F89646" d="M90.52,54.928v3.247c0,0.761-0.677,1.362-1.316,1.362h-3.151c-0.637,0-1.315-0.602-1.315-1.362
	c0-0.602,0.678-1.364,1.315-1.404l2.274-0.279c0.998-0.08,1.835-0.642,2.154-1.483L90.52,54.928z"/>
<path fill="none" stroke="#F89646" stroke-width="0.12" stroke-miterlimit="3.863" d="M90.52,54.928v3.247
	c0,0.761-0.677,1.362-1.316,1.362h-3.151c-0.637,0-1.315-0.602-1.315-1.362c0-0.602,0.678-1.364,1.315-1.404l2.274-0.279
	c0.998-0.08,1.835-0.642,2.154-1.483L90.52,54.928z"/>
<path fill="#120C0E" d="M154.896,57.012c0,3.447-2.354,6.093-5.304,6.093c-2.873,0-5.106-2.646-5.106-6.093v-3.728
	c0-3.446,2.233-6.092,5.106-6.092c2.95,0,5.304,2.646,5.304,6.092V57.012z"/>
<path fill="none" stroke="#120C0E" stroke-width="0.12" stroke-miterlimit="3.863" d="M154.896,57.012
	c0,3.447-2.354,6.093-5.304,6.093c-2.873,0-5.106-2.646-5.106-6.093v-3.728c0-3.446,2.233-6.092,5.106-6.092
	c2.95,0,5.304,2.646,5.304,6.092V57.012z"/>
<path fill="#F89646" d="M147.397,57.653v-4.931c0-1.321,1.036-2.444,2.194-2.444c1.315,0,2.153,1.123,2.153,2.444v4.891
	c0,1.282-0.838,2.444-2.153,2.444c-1.158,0-2.194-1.162-2.194-2.444V57.653z"/>
<path fill="none" stroke="#F89646" stroke-width="0.12" stroke-miterlimit="3.863" d="M147.397,57.653v-4.931
	c0-1.321,1.036-2.444,2.194-2.444c1.315,0,2.153,1.123,2.153,2.444v4.891c0,1.282-0.838,2.444-2.153,2.444
	c-1.158,0-2.194-1.162-2.194-2.444V57.653z"/>
<path fill-rule="evenodd" clip-rule="evenodd" fill="#120C0E" d="M159.203,62.343 M162.395,62.343h-3.191V47.714h3.191V62.343z"/>
<path fill="none" stroke="#120C0E" stroke-width="0.12" stroke-miterlimit="3.863" d="M159.203,62.343 M162.395,62.343h-3.191
	V47.714h3.191V62.343z"/>
<path fill-rule="evenodd" clip-rule="evenodd" fill="#120C0E" d="M159.203,45.43 M162.434,45.43h-3.23v-3.327h3.23V45.43z"/>
<path fill="none" stroke="#120C0E" stroke-width="0.12" stroke-miterlimit="3.863" d="M159.203,45.43 M162.434,45.43h-3.23v-3.327
	h3.23V45.43z"/>
</svg>
